<svg t="1650688749800" class="icon" viewBox="0 0 1024 1024" version="1.1" xmlns="http://www.w3.org/2000/svg" p-id="2076" width="200" height="200"><path d="M895.919113 330.440559a66.552546 66.552546 0 0 0-18.023453-39.491257L682.440047 85.462684a66.545379 66.545379 0 0 0-38.696722-19.986241 66.515686 66.515686 0 0 0-9.524182-0.697266H194.861759c-36.755435 0-66.550498 29.796087-66.550498 66.550498v761.34065c0 36.755435 29.796087 66.550498 66.550498 66.550498h634.811974c36.755435 0 66.550498-29.796087 66.550498-66.550498V336.816293c0.001024-2.137873-0.102389-4.264482-0.305118-6.375734zM690.18062 160.98037v-0.054266l117.069 123.07716H721.214584c-17.112195 0-31.033964-13.921769-31.033964-31.033965v-91.988929zM849.786936 892.670325c0 11.090726-9.022477 20.113203-20.113203 20.113203H194.861759c-11.090726 0-20.113203-9.022477-20.113203-20.113203v-761.34065c0-11.090726 9.022477-20.113203 20.113203-20.113203h439.357384c3.342986 0 6.617371 0.856992 9.524182 2.418417v139.335434c0 42.78612 34.685139 77.471259 77.471259 77.47126h127.519798a20.092726 20.092726 0 0 1 1.053578 6.375733v555.853009z" fill="" p-id="2077"></path><path d="M492.75198 305.185403a82.773961 82.773961 0 0 0 4.139568-25.954469c0-44.357784-34.792647-80.324828-77.6402-80.324827-42.959157 0-77.751804 35.967044-77.751804 80.324827 0 9.117699 1.453917 17.78796 4.194858 25.954469a13.757947 13.757947 0 0 0-7.830675 12.529285l-0.056313-0.056314c0 7.719071 5.985634 13.872622 13.257267 13.872623h0.27952c2.797255 36.246564 32.051706 72.549442 67.907147 72.549442 35.799126 0 65.054602-36.302878 67.850833-72.549442h0.22423c7.383237 0 13.312557-6.153551 13.312557-13.816309 0-5.593486-3.243669-10.348409-7.886988-12.529285zM254.127314 532.791015h330.137488c4.026941 0 7.271634-3.132065 7.271634-7.048426v-25.227511a6.934775 6.934775 0 0 0-2.23719-5.034444 248.917785 248.917785 0 0 0-112.097013-61.362471 7.095525 7.095525 0 0 0-3.467899-0.838562h-3.747421a6.983922 6.983922 0 0 0-3.412609 0.783272 106.054042 106.054042 0 0 1-47.321932 10.403699c-17.563729 0-34.792647-3.803734-47.378246-10.403699a7.277777 7.277777 0 0 0-3.356296-0.783272h-2.797255c-0.559041 0-1.119107 0-1.678148 0.167917a248.638265 248.638265 0 0 0-114.949557 62.033116 6.938871 6.938871 0 0 0-2.1819 5.034444v25.171197c0 3.971651 3.244693 7.103716 7.271634 7.103717h-0.05529zM246.91097 648.393812c0-12.82314 10.395508-23.218648 23.218647-23.218648h513.192827c12.82314 0 23.218648 10.395508 23.218647 23.218648s-10.395508 23.218648-23.218647 23.218647H270.129617c-12.82314 0-23.218648-10.395508-23.218647-23.218647zM246.91097 777.39722c0-12.82314 10.395508-23.218648 23.218647-23.218648h513.192827c12.82314 0 23.218648 10.395508 23.218647 23.218648s-10.395508 23.218648-23.218647 23.218647H270.129617c-12.82314 0-23.218648-10.395508-23.218647-23.218647z" fill="" p-id="2078"></path></svg>
